# xmcd CD database file
#
# Track frame offsets:
#	183
#	8708
#	19678
#	30268
#	38773
#	51800
#	63655
#	73995
#	88943
#	98080
#	110850
#	121543
#	132555
#	144370
#	155790
#	168285
#	182633
#	192623
#	203758
#	214385
#
# Disc length: 3041 seconds
#
# Revision: 0
# Processed by: cddbd v1.4PL0 Copyright (c) Steve Scherf et al.
# Submitted via: CDex 1.40Beta9
#
DISCID=230bdf14
DTITLE=Ben Steneker  - Ben Steneker With The Lowland Singers
DYEAR=1900
DGENRE=Country
TTITLE0=From A Jack To A King
TTITLE1=Bouquet Of Roses
TTITLE2=Billy Bayou
TTITLE3=Kissing My Pillow
TTITLE4=My Son Calls Another Man Daddy
TTITLE5=Judy
TTITLE6=I Used To Love You
TTITLE7=Lonely Rriver Rhine
TTITLE8=Unwanted Sign Upon Your Heart
TTITLE9=Beer Drinking Music
TTITLE10=Old Oklahoma
TTITLE11=There's A Soft Place In My Heart
TTITLE12=We Bad All The Good Thigs Going
TTITLE13=One More Time
TTITLE14=Haunted Hungry Heart
TTITLE15=The Banks Of The Ohio
TTITLE16=Come On Home And Sing The Blues To Daddy
TTITLE17=Let Me Live Again
TTITLE18=Wine Me Up
TTITLE19=You're Just Imagination
EXTD=ID3G: 2
EXTT0=
EXTT1=
EXTT2=
EXTT3=
EXTT4=
EXTT5=
EXTT6=
EXTT7=
EXTT8=
EXTT9=
EXTT10=
EXTT11=
EXTT12=
EXTT13=
EXTT14=
EXTT15=
EXTT16=
EXTT17=
EXTT18=
EXTT19=
PLAYORDER=
